PathFileType	4	(X/Y/Z)	/Users/itak/Documents/Research/Walk-IL/dataset/trc/00250_00009.trc
DataRate	CameraRate	NumFrames	NumMarkers	Units	OrigDataRate	OrigDataStartFrame	OrigNumFrames
100.000000	100.000000	4	53	mm	100.000000	423	565
Frame#	Time	RPSI			LPSI			L3			STRN			T10			C7			CLAV			RBAK			LBAK			LSHO			LUPA			LAEL			LAOL			LWTS			LWPS			LFRA			LIFD			LHPS			LHTS			RSHO			RUPA			RAEL			RAOL			RWTS			RWPS			RFRA			RHTS			RHPS			RBHD			LFHD			RFHD			LBHD			LHIP			RHIP			RASI			LASI			LKNE			LTHI			LANK			LTIP			LTOE			LMT1			LMT5			LHEE			RKNE			RTHI			RANK			RTIP			RTOE			RMT1			RMT5			RHEE			RIFD			
		X1	Y1	Z1	X2	Y2	Z2	X3	Y3	Z3	X4	Y4	Z4	X5	Y5	Z5	X6	Y6	Z6	X7	Y7	Z7	X8	Y8	Z8	X9	Y9	Z9	X10	Y10	Z10	X11	Y11	Z11	X12	Y12	Z12	X13	Y13	Z13	X14	Y14	Z14	X15	Y15	Z15	X16	Y16	Z16	X17	Y17	Z17	X18	Y18	Z18	X19	Y19	Z19	X20	Y20	Z20	X21	Y21	Z21	X22	Y22	Z22	X23	Y23	Z23	X24	Y24	Z24	X25	Y25	Z25	X26	Y26	Z26	X27	Y27	Z27	X28	Y28	Z28	X29	Y29	Z29	X30	Y30	Z30	X31	Y31	Z31	X32	Y32	Z32	X33	Y33	Z33	X34	Y34	Z34	X35	Y35	Z35	X36	Y36	Z36	X37	Y37	Z37	X38	Y38	Z38	X39	Y39	Z39	X40	Y40	Z40	X41	Y41	Z41	X42	Y42	Z42	X43	Y43	Z43	X44	Y44	Z44	X45	Y45	Z45	X46	Y46	Z46	X47	Y47	Z47	X48	Y48	Z48	X49	Y49	Z49	X50	Y50	Z50	X51	Y51	Z51	X52	Y52	Z52	X53	Y53	Z53	

424	4.23	-114.8538970947266	1008.501403808594	652.3717041015625	1.064361333847046	1023.508178710938	627.8958129882812	-41.82203674316406	1103.14013671875	627.3115844726562	7.771489143371582	1293.395629882812	875.085205078125	-46.73945999145508	1229.324829101562	628.2987670898438	-28.59780120849609	1492.341552734375	683.8550415039062	-0.5135722756385803	1410.156372070312	847.6026000976562	-111.9083938598633	1350.9833984375	626.5304565429688	75.47695922851562	1452.927001953125	642.999755859375	145.3451385498047	1453.526977539062	720.0764770507812	217.7713012695312	1335.498779296875	681.66259765625	257.6087951660156	1128.4375	707.9631958007812	199.3439483642578	1101.987915039062	648.2413330078125	218.2265167236328	923.1166381835938	856.0576782226562	292.5440368652344	898.226806640625	822.153076171875	276.2005615234375	1027.803955078125	748.7964477539062	227.6707916259766	735.2047119140625	906.2838134765625	291.5993041992188	816.8352661132812	860.6539306640625	245.2174835205078	832.9522094726562	908.8567504882812	-186.3156280517578	1454.1279296875	770.4293212890625	-256.0327453613281	1390.49853515625	759.9625244140625	-296.9841003417969	1111.026977539062	727.4242553710938	-209.5683441162109	1105.760986328125	689.2365112304688	-238.9790496826172	901.1550903320312	865.7049560546875	-307.5687255859375	883.9004516601562	817.3619384765625	-307.3679504394531	1043.626831054688	756.5670776367188	-247.5734405517578	780.2291870117188	905.4091186523438	-302.3015747070312	778.0536499023438	859.30712890625	-69.77732086181641	1652.995239257812	734.791748046875	50.3417854309082	1691.579223632812	923.8594970703125	-48.66215896606445	1686.737060546875	936.6361694335938	67.75016784667969	1663.428344726562	762.4898681640625	165.1619873046875	973.208740234375	691.5475463867188	-189.6290283203125	970.5426025390625	774.8720092773438	-134.7863922119141	1019.706665039062	857.2905883789062	141.7560577392578	1014.676879882812	801.6845703125	106.6288452148438	491.4286499023438	688.9876098632812	140.8141937255859	634.1300048828125	697.4130249023438	15.22874927520752	42.84193801879883	508.7437438964844	71.27074432373047	280.1695861816406	591.6665649414062	16.07273864746094	40.68973922729492	729.8916625976562	-40.69057464599609	41.70932006835938	673.4849853515625	66.54605865478516	33.19370269775391	624.7984008789062	-48.54226684570312	64.0186767578125	461.841552734375	-112.4186172485352	515.364013671875	945.936279296875	-176.9802093505859	766.8327026367188	875.72314453125	-54.79400634765625	32.92620849609375	1029.01953125	-85.68759155273438	405.6584777832031	988.53564453125	1.047892451286316	97.16964721679688	1222.101196289062	41.62627792358398	79.53421783447266	1166.392456054688	-69.19624328613281	54.89793014526367	1137.15576171875	-2.520647525787354	27.47815132141113	962.0864868164062	-226.2632141113281	707.4920654296875	883.1160888671875	
425	4.24	-113.8509750366211	1007.650146484375	660.5084228515625	2.186206102371216	1022.447692871094	635.8707275390625	-40.75689315795898	1101.75830078125	635.3872680664062	8.664761543273926	1292.974609375	882.0590209960938	-45.87898635864258	1227.962890625	635.7684326171875	-28.13421440124512	1491.32861328125	690.1537475585938	0.1307889968156815	1409.594604492188	854.1541748046875	-111.1115875244141	1349.486694335938	633.2389526367188	75.93494415283203	1451.81884765625	649.3638916015625	145.9648895263672	1452.675415039062	726.3143310546875	218.0838928222656	1334.347900390625	687.6996459960938	257.2692260742188	1127.073120117188	713.3662719726562	198.6709442138672	1101.078125	653.779296875	218.0312347412109	920.6365356445312	859.9456176757812	292.1294555664062	895.86376953125	825.53564453125	275.7967529296875	1026.082153320312	753.3546142578125	227.2276306152344	732.2424926757812	908.4110717773438	291.1679992675781	814.1432495117188	863.302001953125	245.1535034179688	829.8994750976562	911.780029296875	-185.8031921386719	1452.911499023438	776.754150390625	-255.4240417480469	1389.134643554688	766.354248046875	-295.9215087890625	1109.637084960938	734.1063842773438	-208.4173889160156	1104.407592773438	696.1552124023438	-238.9470825195312	898.4765625	870.7265014648438	-307.542724609375	881.9981079101562	822.1842041015625	-306.2822265625	1041.921020507812	762.6029052734375	-248.1354064941406	776.6332397460938	908.8713989257812	-302.7560424804688	775.7271118164062	863.2427978515625	-69.50540161132812	1652.170166015625	740.7705078125	50.33902359008789	1691.255493164062	929.9085083007812	-48.77228546142578	1686.257934570312	942.5447998046875	68.01915740966797	1662.842163085938	768.62451171875	166.3516235351562	971.990234375	699.3502807617188	-187.9602355957031	969.7902221679688	782.9428100585938	-133.3102416992188	1018.941833496094	865.4509887695312	143.0926666259766	1013.7861328125	809.3395385742188	108.1477508544922	490.1362915039062	697.131103515625	142.2099304199219	632.9161376953125	705.5353393554688	15.42978191375732	44.49121856689453	509.1293029785156	72.25043487548828	280.28271484375	596.3505859375	16.16104125976562	40.5620231628418	730.12939453125	-40.59543609619141	42.02518081665039	673.7105102539062	66.5452880859375	33.18957901000977	624.9696655273438	-48.17597961425781	66.64481353759766	462.3401184082031	-110.4389114379883	514.6146850585938	953.1302490234375	-175.0374603271484	766.051025390625	884.0491943359375	-54.10194778442383	32.66745758056641	1030.505859375	-83.537353515625	404.3366088867188	995.1095581054688	2.688906192779541	89.36554718017578	1225.968872070312	43.06717681884766	73.22218322753906	1169.600341796875	-68.08272552490234	51.16329193115234	1139.3515625	-1.551010370254517	28.23588943481445	963.4943237304688	-227.1191253662109	704.6036376953125	886.5432739257812	
426	4.25	-112.7999877929688	1007.068969726562	668.5603637695312	3.412975311279297	1021.528747558594	643.826904296875	-39.60732269287109	1100.572998046875	643.464111328125	9.532597541809082	1292.741333007812	889.0502319335938	-44.99452590942383	1226.77783203125	643.2214965820312	-27.71956825256348	1490.481567382812	696.466796875	0.7442513704299927	1409.212158203125	860.7130737304688	-110.3963851928711	1348.178466796875	639.952392578125	76.34017181396484	1450.87158203125	655.7318725585938	146.5582275390625	1452.009033203125	732.5194702148438	218.3568115234375	1333.360717773438	693.69677734375	256.8567504882812	1125.88330078125	718.7733764648438	197.8929748535156	1100.33984375	659.3531494140625	217.8753509521484	918.2116088867188	863.677001953125	291.7452087402344	893.61474609375	828.7042236328125	275.3526000976562	1024.515502929688	757.8251342773438	226.9516754150391	729.3486328125	910.2891235351562	290.8346557617188	811.553955078125	865.6847534179688	245.2028045654297	826.8982543945312	914.4791259765625	-185.3253631591797	1451.846069335938	783.1285400390625	-254.8226470947266	1387.890747070312	772.8374633789062	-294.8862609863281	1108.376220703125	741.0020141601562	-207.3167266845703	1103.18017578125	703.2109375	-238.9095611572266	895.8758544921875	875.8131103515625	-307.540283203125	880.2555541992188	827.1905517578125	-305.2600708007812	1040.332763671875	768.7433471679688	-248.6579437255859	773.1013793945312	912.3198852539062	-303.1896667480469	773.5294799804688	867.2998657226562	-69.28189086914062	1651.515380859375	746.7501831054688	50.28733062744141	1691.124145507812	935.9603881835938	-48.94426727294922	1685.97314453125	948.4537963867188	68.22863006591797	1662.438354492188	774.7569580078125	167.5765380859375	970.7860107421875	707.2827758789062	-186.3657531738281	969.33935546875	790.9017944335938	-131.8933410644531	1018.470092773438	873.5211791992188	144.3966674804688	1012.994934082031	817.1324462890625	109.6554336547852	488.8236389160156	705.7481079101562	143.6002960205078	631.685302734375	714.0593872070312	15.66423416137695	46.41788864135742	509.57568359375	73.25130462646484	280.5642395019531	601.2921142578125	16.25462341308594	40.44090270996094	730.392822265625	-40.46757125854492	42.42787551879883	673.9940185546875	66.52877044677734	33.1873893737793	625.1798095703125	-47.75214767456055	69.68569183349609	462.9981079101562	-108.5475234985352	514.3494262695312	960.612548828125	-173.2568969726562	765.6776123046875	892.4140014648438	-53.67658996582031	32.71229553222656	1031.668090820312	-81.48751068115234	403.4088745117188	1001.917053222656	4.195717811584473	81.24733734130859	1229.533813476562	44.26799392700195	66.83367919921875	1172.442993164062	-67.31113433837891	47.67242431640625	1141.212280273438	-0.8566691875457764	29.0677375793457	964.6611938476562	-227.97119140625	701.8438110351562	890.0390625	
427	4.26	-111.6549987792969	1006.788208007812	676.4788818359375	4.77763032913208	1020.7822265625	651.7318115234375	-38.33690643310547	1099.624389648438	651.4810180664062	10.36707973480225	1292.719116210938	896.0426025390625	-44.06009292602539	1225.8193359375	650.6143188476562	-27.33692169189453	1489.830200195312	702.788818359375	1.328922867774963	1409.037231445312	867.2698974609375	-109.7503662109375	1347.110107421875	646.6494140625	76.70587158203125	1450.125244140625	662.1070556640625	147.1398010253906	1451.56982421875	738.699462890625	218.5998992919922	1332.583862304688	699.6588745117188	256.3722229003906	1124.91455078125	724.1937866210938	197.0012817382812	1099.822998046875	664.9700927734375	217.7592620849609	915.87890625	867.2510986328125	291.3870239257812	891.5269165039062	831.658447265625	274.8686828613281	1023.15185546875	762.2120361328125	226.8296813964844	726.560302734375	911.89892578125	290.5888671875	809.111083984375	867.79296875	245.3397064208984	823.9942016601562	916.94775390625	-184.8736267089844	1450.973754882812	789.5429077148438	-254.2158813476562	1386.811889648438	779.4013671875	-293.8742065429688	1107.29052734375	748.1036376953125	-206.2611999511719	1102.126831054688	710.3856201171875	-238.8616790771484	893.4071044921875	880.9835815429688	-307.5382385253906	878.7280883789062	832.4257202148438	-304.3082275390625	1038.943359375	775.0489501953125	-249.1329193115234	769.761962890625	915.8270874023438	-303.6043395996094	771.5187377929688	871.4856567382812	-69.09605407714844	1651.056884765625	752.73291015625	50.18540573120117	1691.195922851562	942.0211791992188	-49.15458297729492	1685.90185546875	954.3695068359375	68.38754272460938	1662.237670898438	780.8927612304688	168.8489685058594	969.6318969726562	715.3538208007812	-184.8715515136719	969.2472534179688	798.70458984375	-130.5645904541016	1018.350891113281	881.4470825195312	145.65576171875	1012.331359863281	825.0706176757812	111.1899490356445	487.5287170410156	714.8382568359375	145.005859375	630.4725952148438	722.9954833984375	15.95480918884277	48.65257263183594	510.122314453125	74.30789947509766	281.0673522949219	606.49755859375	16.3469352722168	40.33349227905273	730.6729125976562	-40.29442977905273	42.93172836303711	674.3482055664062	66.49558258056641	33.19344329833984	625.4395751953125	-47.24108505249023	73.20072937011719	463.8538818359375	-106.7509231567383	514.5928344726562	968.4089965820312	-171.6365051269531	765.7716674804688	900.8016967773438	-53.45359802246094	32.99638366699219	1032.642944335938	-79.56113433837891	402.9070129394531	1008.958618164062	5.543392181396484	73.37346649169922	1232.778564453125	45.21510696411133	60.84653472900391	1174.9287109375	-66.85057067871094	44.70362091064453	1142.81591796875	-0.410041868686676	29.93195724487305	965.68896484375	-228.8105926513672	699.260498046875	893.59228515625	
